<?xml version="1.0" encoding="utf-8"?>
<!-- Generator: Adobe Illustrator 25.2.3, SVG Export Plug-In . SVG Version: 6.00 Build 0)  -->
<svg version="1.1" id="레이어_1" xmlns="http://www.w3.org/2000/svg" xmlns:xlink="http://www.w3.org/1999/xlink" x="0px"
	 y="0px" viewBox="0 0 425.2 425.2" style="enable-background:new 0 0 425.2 425.2;" xml:space="preserve">
<style type="text/css">
	.st0{fill:#FFFFFF;}
</style>
<g id="그룹_11823_1_" transform="translate(-2647.536 2080.648)">
	<path id="패스_16913_1_" class="st0" d="M2779-1768.5h-37.4l31.3-68.9l-54.7-115.9h38.8l33.5,77.6l32.8-77.6h38.8L2779-1768.5z"
		/>
	<path id="패스_16914_1_" class="st0" d="M3002.4-1887.1v59.1H2972v-13.3c-10.1,10.1-22.9,16.2-36.6,16.2c-36.5-0.1-66-29.6-66-66
		c0.1-36.5,29.6-66,66-66C2971.8-1957.3,3002.4-1928.3,3002.4-1887.1z M2902.8-1891.2c0,18.8,14,34,32.5,34
		c18.8,0,32.5-15.2,32.5-34s-13.7-34-32.5-34C2916.8-1925.2,2902.8-1910,2902.8-1891.2L2902.8-1891.2z"/>
</g>
</svg>
