<?xml version="1.0" encoding="utf-8"?>
<!-- Generator: Adobe Illustrator 25.2.1, SVG Export Plug-In . SVG Version: 6.00 Build 0)  -->
<svg version="1.1" id="레이어_1" xmlns="http://www.w3.org/2000/svg" xmlns:xlink="http://www.w3.org/1999/xlink" x="0px"
	 y="0px" viewBox="0 0 113.39 31.18" style="enable-background:new 0 0 113.39 31.18;" xml:space="preserve">
<g id="logo" transform="translate(-936.508 -300.006)">
	<path id="패스_1" d="M945.88,316.72l-4.34-10.06h-5.03l7.09,15.03l-4.06,8.94h4.84l10.78-23.97h-5.03L945.88,316.72z"/>
	<path id="패스_2" d="M964.65,306.17c-4.73-0.05-8.6,3.74-8.65,8.47s3.74,8.6,8.47,8.65c0.06,0,0.12,0,0.19,0
		c1.8-0.03,3.51-0.79,4.75-2.09v1.72h3.94v-7.65c0.19-4.83-3.57-8.89-8.39-9.08C964.85,306.17,964.75,306.17,964.65,306.17z
		 M964.65,319.13c-2.43,0.1-4.49-1.78-4.59-4.22c-0.1-2.43,1.78-4.49,4.22-4.59c2.43-0.1,4.49,1.78,4.59,4.22c0,0.06,0,0.13,0,0.19
		c0.07,2.35-1.77,4.32-4.13,4.4C964.71,319.12,964.68,319.12,964.65,319.13L964.65,319.13z"/>
	<path id="패스_3" d="M986.04,306.17c-1.53,0-3.69,0.5-4.75,2.16v-1.97h-4.22v16.56h4.41v-9.44c-0.04-1.86,1.44-3.4,3.31-3.44
		c0.07,0,0.15,0,0.22,0c1.78-0.15,3.35,1.18,3.49,2.96c0.01,0.15,0.01,0.3,0.01,0.44v9.47h4.41v-9.72
		C992.92,309.48,991.07,306.17,986.04,306.17z"/>
	<path id="패스_4" d="M1004.57,306.17c-4.73,0-8.56,3.83-8.56,8.56s3.83,8.56,8.56,8.56c4.73,0,8.56-3.83,8.56-8.56l0,0
		C1013.12,310.01,1009.3,306.18,1004.57,306.17z M1004.57,319.1c-2.42,0.1-4.47-1.79-4.56-4.22c-0.1-2.42,1.79-4.47,4.22-4.56
		c2.42-0.1,4.47,1.79,4.56,4.22c0,0.06,0,0.13,0,0.19c0.06,2.35-1.79,4.31-4.14,4.37C1004.63,319.09,1004.6,319.09,1004.57,319.1
		L1004.57,319.1z"/>
	<rect id="사각형_5" x="1016.57" y="300.01" width="4.37" height="22.9"/>
	<path id="패스_5" d="M1025.19,322.34c0,3-1.81,3.97-3.47,3.97v4.31c2.5,0,7.75-0.69,7.78-8.22V306.7h-4.31V322.34z"/>
	<path id="패스_6" d="M1041.19,306.17c-4.73-0.05-8.6,3.74-8.65,8.47s3.74,8.6,8.47,8.65c0.06,0,0.12,0,0.19,0
		c1.8-0.03,3.51-0.79,4.75-2.09v1.72h3.94v-7.65c0.19-4.83-3.57-8.89-8.39-9.08C1041.38,306.17,1041.28,306.17,1041.19,306.17z
		 M1041.19,319.13c-2.43,0.1-4.49-1.78-4.59-4.22c-0.1-2.43,1.78-4.49,4.22-4.59c2.43-0.1,4.49,1.78,4.59,4.22c0,0.06,0,0.13,0,0.19
		c0.07,2.35-1.77,4.32-4.13,4.4C1041.25,319.12,1041.22,319.12,1041.19,319.13L1041.19,319.13z"/>
</g>
</svg>
